<svg width="900" height="620" viewBox="0 0 900 620" fill="none" xmlns="http://www.w3.org/2000/svg">
  <rect width="900" height="620" rx="36" fill="url(#bg)"/>
  <path d="M669 124C724 157 767 205 792 263" stroke="#FCA5A5" stroke-width="18" stroke-linecap="round"/>
  <path d="M623 184C659 206 687 237 704 275" stroke="#FCA5A5" stroke-width="14" stroke-linecap="round"/>
  <path d="M578 244C596 255 612 273 622 293" stroke="#FCA5A5" stroke-width="10" stroke-linecap="round"/>
  <g filter="url(#shadow)">
    <rect x="176" y="130" width="205" height="360" rx="34" fill="#111827"/>
    <rect x="236" y="72" width="84" height="90" rx="16" fill="#E30613"/>
    <rect x="220" y="190" width="116" height="78" rx="18" fill="#F9FAFB"/>
    <rect x="218" y="310" width="120" height="28" rx="14" fill="#374151"/>
    <rect x="218" y="357" width="120" height="28" rx="14" fill="#374151"/>
    <circle cx="278" cy="438" r="28" fill="#E30613"/>
    <path d="M278 421V455" stroke="white" stroke-width="9" stroke-linecap="round"/>
  </g>
  <g filter="url(#shadow)">
    <rect x="474" y="170" width="200" height="322" rx="34" fill="white"/>
    <rect x="536" y="104" width="76" height="94" rx="14" fill="#111827"/>
    <rect x="513" y="226" width="122" height="66" rx="18" fill="#111827"/>
    <path d="M532 260H616" stroke="#E30613" stroke-width="9" stroke-linecap="round"/>
    <rect x="520" y="332" width="108" height="24" rx="12" fill="#F3F4F6"/>
    <rect x="520" y="373" width="108" height="24" rx="12" fill="#F3F4F6"/>
    <circle cx="574" cy="442" r="24" fill="#E30613"/>
  </g>
  <rect x="686" y="392" width="88" height="88" rx="24" fill="#E30613" opacity=".95"/>
  <path d="M711 437H750" stroke="white" stroke-width="10" stroke-linecap="round"/>
  <path d="M731 417V457" stroke="white" stroke-width="10" stroke-linecap="round"/>
  <text x="100" y="78" fill="#E30613" font-family="Segoe UI, Arial, sans-serif" font-size="27" font-weight="800" letter-spacing="5">MOTOROLA</text>
  <text x="100" y="552" fill="#111827" font-family="Segoe UI, Arial, sans-serif" font-size="27" font-weight="800">Comunicación operativa confiable</text>
  <defs>
    <linearGradient id="bg" x1="0" y1="0" x2="900" y2="620" gradientUnits="userSpaceOnUse">
      <stop stop-color="#FFFFFF"/>
      <stop offset="1" stop-color="#F3F4F6"/>
    </linearGradient>
    <filter id="shadow" x="130" y="40" width="590" height="500" filterUnits="userSpaceOnUse" color-interpolation-filters="sRGB">
      <feDropShadow dx="0" dy="24" stdDeviation="24" flood-color="#111827" flood-opacity=".16"/>
    </filter>
  </defs>
</svg>
