<svg width="900" height="620" viewBox="0 0 900 620" fill="none" xmlns="http://www.w3.org/2000/svg">
  <rect width="900" height="620" rx="36" fill="url(#bg)"/>
  <circle cx="720" cy="110" r="150" fill="#FEE2E2"/>
  <circle cx="170" cy="520" r="190" fill="#F8FAFC"/>
  <g filter="url(#shadow)">
    <rect x="100" y="110" width="330" height="390" rx="34" fill="#111827"/>
    <rect x="130" y="155" width="270" height="270" rx="24" fill="#F9FAFB"/>
    <rect x="174" y="455" width="182" height="18" rx="9" fill="#374151"/>
    <rect x="185" y="192" width="36" height="170" rx="8" fill="#111827"/>
    <rect x="234" y="192" width="14" height="170" rx="7" fill="#111827"/>
    <rect x="264" y="192" width="28" height="170" rx="8" fill="#111827"/>
    <rect x="308" y="192" width="11" height="170" rx="5.5" fill="#111827"/>
    <rect x="335" y="192" width="35" height="170" rx="8" fill="#111827"/>
    <rect x="170" y="386" width="190" height="12" rx="6" fill="#E30613"/>
  </g>
  <g filter="url(#shadow)">
    <rect x="500" y="166" width="280" height="230" rx="28" fill="white"/>
    <rect x="540" y="214" width="200" height="42" rx="12" fill="#111827"/>
    <rect x="535" y="290" width="210" height="58" rx="14" fill="#F3F4F6"/>
    <path d="M548 319H735" stroke="#E30613" stroke-width="9" stroke-linecap="round"/>
    <path d="M560 368H724" stroke="#D1D5DB" stroke-width="11" stroke-linecap="round"/>
    <rect x="585" y="128" width="110" height="70" rx="18" fill="#E30613"/>
  </g>
  <g filter="url(#shadow)">
    <rect x="545" y="420" width="250" height="78" rx="22" fill="#111827"/>
    <rect x="580" y="445" width="180" height="12" rx="6" fill="#F9FAFB"/>
    <rect x="580" y="470" width="125" height="10" rx="5" fill="#E30613"/>
  </g>
  <text x="102" y="78" fill="#E30613" font-family="Segoe UI, Arial, sans-serif" font-size="27" font-weight="800" letter-spacing="5">ZEBRA</text>
  <text x="100" y="552" fill="#111827" font-family="Segoe UI, Arial, sans-serif" font-size="27" font-weight="800">Captura, impresión y trazabilidad</text>
  <defs>
    <linearGradient id="bg" x1="0" y1="0" x2="900" y2="620" gradientUnits="userSpaceOnUse">
      <stop stop-color="#FFFFFF"/>
      <stop offset="1" stop-color="#F3F4F6"/>
    </linearGradient>
    <filter id="shadow" x="60" y="80" width="770" height="470" filterUnits="userSpaceOnUse" color-interpolation-filters="sRGB">
      <feDropShadow dx="0" dy="24" stdDeviation="22" flood-color="#111827" flood-opacity=".16"/>
    </filter>
  </defs>
</svg>
